<svg xmlns="http://www.w3.org/2000/svg" xmlns:xlink="http://www.w3.org/1999/xlink" width="500" zoomAndPan="magnify" viewBox="0 0 375 374.999991" height="500" preserveAspectRatio="xMidYMid meet" version="1.0"><defs><g/><clipPath id="5f98e13a7a"><path d="M 37.5 112 L 128 112 L 128 264 L 37.5 264 Z M 37.5 112 " clip-rule="nonzero"/></clipPath><clipPath id="07c407a15b"><path d="M 265 112 L 354.75 112 L 354.75 264 L 265 264 Z M 265 112 " clip-rule="nonzero"/></clipPath><clipPath id="7c3ca00f54"><path d="M 143 57 L 261 57 L 261 318.863281 L 143 318.863281 Z M 143 57 " clip-rule="nonzero"/></clipPath></defs><g clip-path="url(#5f98e13a7a)"><path fill="#00ced1" d="M 117.554688 263.933594 C 115.101562 263.933594 112.648438 263 110.777344 261.128906 L 37.902344 188.257812 L 110.777344 115.386719 C 114.519531 111.644531 120.589844 111.644531 124.332031 115.386719 C 128.074219 119.128906 128.074219 125.195312 124.332031 128.9375 L 65.007812 188.257812 L 124.332031 247.578125 C 128.074219 251.316406 128.074219 257.386719 124.332031 261.128906 C 122.460938 263 120.007812 263.933594 117.554688 263.933594 " fill-opacity="1" fill-rule="nonzero"/></g><g clip-path="url(#07c407a15b)"><path fill="#00ced1" d="M 274.738281 263.933594 C 272.285156 263.933594 269.832031 263 267.960938 261.128906 C 264.21875 257.386719 264.21875 251.316406 267.960938 247.578125 L 327.285156 188.257812 L 267.960938 128.9375 C 264.21875 125.195312 264.21875 119.128906 267.960938 115.386719 C 271.703125 111.644531 277.769531 111.644531 281.515625 115.386719 L 354.390625 188.257812 L 281.515625 261.128906 C 279.644531 263 277.191406 263.933594 274.738281 263.933594 " fill-opacity="1" fill-rule="nonzero"/></g><g clip-path="url(#7c3ca00f54)"><path fill="#00ced1" d="M 153.148438 318.882812 C 151.960938 318.882812 150.75 318.660156 149.578125 318.1875 C 144.667969 316.214844 142.289062 310.632812 144.261719 305.722656 L 241.570312 63.644531 C 243.546875 58.734375 249.128906 56.351562 254.039062 58.328125 C 258.949219 60.300781 261.332031 65.882812 259.355469 70.792969 L 162.042969 312.871094 C 160.542969 316.613281 156.949219 318.882812 153.148438 318.882812 " fill-opacity="1" fill-rule="nonzero"/></g><g fill="#000000" fill-opacity="1"><g transform="translate(110.677132, 79.149531)"><g><path d="M 39.96875 -70.203125 C 50.78125 -70.203125 59.765625 -66.835938 66.921875 -60.109375 C 74.078125 -53.378906 77.65625 -44.976562 77.65625 -34.90625 C 77.65625 -24.757812 74.054688 -16.269531 66.859375 -9.4375 C 59.671875 -2.613281 50.707031 0.796875 39.96875 0.796875 C 29.226562 0.796875 20.28125 -2.597656 13.125 -9.390625 C 5.96875 -16.191406 2.390625 -24.695312 2.390625 -34.90625 C 2.390625 -45.039062 5.96875 -53.457031 13.125 -60.15625 C 20.28125 -66.851562 29.226562 -70.203125 39.96875 -70.203125 Z M 40.171875 -55.390625 C 34.734375 -55.390625 30.09375 -53.414062 26.25 -49.46875 C 22.40625 -45.519531 20.484375 -40.628906 20.484375 -34.796875 C 20.484375 -28.960938 22.421875 -24.039062 26.296875 -20.03125 C 30.179688 -16.019531 34.804688 -14.015625 40.171875 -14.015625 C 45.546875 -14.015625 50.101562 -16.019531 53.84375 -20.03125 C 57.59375 -24.039062 59.46875 -28.960938 59.46875 -34.796875 C 59.46875 -40.628906 57.59375 -45.519531 53.84375 -49.46875 C 50.101562 -53.414062 45.546875 -55.390625 40.171875 -55.390625 Z M 40.171875 -55.390625 "/></g></g></g><g fill="#000000" fill-opacity="1"><g transform="translate(190.72283, 79.149531)"><g><path d="M 42.5625 -54.390625 C 48.457031 -54.390625 53.191406 -52.515625 56.765625 -48.765625 C 60.347656 -45.023438 62.140625 -40.039062 62.140625 -33.8125 L 62.140625 0 L 44.953125 0 L 44.953125 -29.03125 C 44.953125 -32.144531 44.101562 -34.613281 42.40625 -36.4375 C 40.71875 -38.257812 38.414062 -39.171875 35.5 -39.171875 C 32.1875 -39.171875 29.535156 -37.976562 27.546875 -35.59375 C 25.554688 -33.207031 24.5625 -30.160156 24.5625 -26.453125 L 24.5625 0 L 7.359375 0 L 7.359375 -73.78125 L 24.5625 -73.78125 L 24.5625 -44.75 C 28.34375 -51.039062 34.34375 -54.253906 42.5625 -54.390625 Z M 42.5625 -54.390625 "/></g></g></g><g fill="#000000" fill-opacity="1"><g transform="translate(258.155597, 79.149531)"><g/></g></g><g fill="#000000" fill-opacity="1"><g transform="translate(104.034483, 217.130173)"><g><path d="M 78.453125 -54.390625 C 84.359375 -54.390625 89.050781 -52.515625 92.53125 -48.765625 C 96.007812 -45.023438 97.75 -40.039062 97.75 -33.8125 L 97.75 0 L 80.640625 0 L 80.640625 -29.03125 C 80.640625 -32.21875 79.8125 -34.722656 78.15625 -36.546875 C 76.5 -38.367188 74.242188 -39.28125 71.390625 -39.28125 C 68.210938 -39.207031 65.675781 -37.992188 63.78125 -35.640625 C 61.894531 -33.296875 60.953125 -30.265625 60.953125 -26.546875 L 60.953125 0 L 43.75 0 L 43.75 -29.03125 C 43.75 -32.21875 42.9375 -34.722656 41.3125 -36.546875 C 39.6875 -38.367188 37.453125 -39.28125 34.609375 -39.28125 C 31.359375 -39.207031 28.769531 -37.976562 26.84375 -35.59375 C 24.925781 -33.207031 23.96875 -30.191406 23.96875 -26.546875 L 23.96875 0 L 6.859375 0 L 6.859375 -53.59375 L 23.96875 -53.59375 L 23.96875 -44.75 C 27.613281 -51.039062 33.515625 -54.253906 41.671875 -54.390625 C 45.972656 -54.390625 49.695312 -53.3125 52.84375 -51.15625 C 56 -49 58.238281 -46.035156 59.5625 -42.265625 C 63.070312 -50.210938 69.367188 -54.253906 78.453125 -54.390625 Z M 78.453125 -54.390625 "/></g></g></g><g fill="#000000" fill-opacity="1"><g transform="translate(207.14924, 217.130173)"><g><path d="M 58.375 -53.59375 L 35.203125 5.5625 C 31.222656 15.25 24.328125 20.09375 14.515625 20.09375 C 8.816406 20.09375 3.613281 18.269531 -1.09375 14.625 L 6.0625 2.890625 C 8.445312 4.804688 10.800781 5.765625 13.125 5.765625 C 16.175781 5.765625 18.394531 4.335938 19.78125 1.484375 L 21.078125 -1.1875 L -1.1875 -53.59375 L 16.5 -53.59375 L 29.625 -18 L 41.265625 -53.59375 Z M 58.375 -53.59375 "/></g></g></g><g fill="#000000" fill-opacity="1"><g transform="translate(264.827381, 217.130173)"><g/></g></g><g fill="#000000" fill-opacity="1"><g transform="translate(21.117906, 355.110814)"><g><path d="M 24.65625 -14.8125 L 54.1875 -14.8125 L 54.1875 0 L 6.953125 0 L 6.953125 -69.609375 L 24.65625 -69.609375 Z M 24.65625 -14.8125 "/></g></g></g><g fill="#000000" fill-opacity="1"><g transform="translate(76.801874, 355.110814)"><g><path d="M 31.71875 -54.1875 C 40.46875 -54.1875 47.523438 -51.679688 52.890625 -46.671875 C 58.265625 -41.671875 60.953125 -35.0625 60.953125 -26.84375 C 60.953125 -18.625 58.265625 -11.992188 52.890625 -6.953125 C 47.523438 -1.921875 40.46875 0.59375 31.71875 0.59375 C 22.90625 0.59375 15.8125 -1.921875 10.4375 -6.953125 C 5.070312 -11.992188 2.390625 -18.625 2.390625 -26.84375 C 2.390625 -35.0625 5.070312 -41.671875 10.4375 -46.671875 C 15.8125 -51.679688 22.90625 -54.1875 31.71875 -54.1875 Z M 31.71875 -40.578125 C 28.132812 -40.578125 25.234375 -39.28125 23.015625 -36.6875 C 20.796875 -34.101562 19.6875 -30.757812 19.6875 -26.65625 C 19.6875 -22.476562 20.796875 -19.113281 23.015625 -16.5625 C 25.234375 -14.007812 28.132812 -12.734375 31.71875 -12.734375 C 35.226562 -12.734375 38.09375 -14.007812 40.3125 -16.5625 C 42.539062 -19.113281 43.65625 -22.476562 43.65625 -26.65625 C 43.65625 -30.757812 42.539062 -34.101562 40.3125 -36.6875 C 38.09375 -39.28125 35.226562 -40.578125 31.71875 -40.578125 Z M 31.71875 -40.578125 "/></g></g></g><g fill="#000000" fill-opacity="1"><g transform="translate(140.142363, 355.110814)"><g><path d="M 24.0625 -53.59375 L 24.0625 -44.546875 C 27.84375 -50.972656 33.644531 -54.253906 41.46875 -54.390625 L 41.46875 -38.875 C 36.5625 -39.34375 32.550781 -38.53125 29.4375 -36.4375 C 26.320312 -34.351562 24.53125 -31.390625 24.0625 -27.546875 L 24.0625 0 L 6.859375 0 L 6.859375 -53.59375 Z M 24.0625 -53.59375 "/></g></g></g><g fill="#000000" fill-opacity="1"><g transform="translate(182.601379, 355.110814)"><g><path d="M 30.328125 -54.1875 C 39.609375 -54.1875 46.582031 -51.335938 51.25 -45.640625 C 55.925781 -39.941406 57.96875 -32.117188 57.375 -22.171875 L 19.6875 -22.171875 C 20.550781 -18.992188 22.078125 -16.539062 24.265625 -14.8125 C 26.453125 -13.09375 29.132812 -12.234375 32.3125 -12.234375 C 37.21875 -12.234375 41.492188 -14.054688 45.140625 -17.703125 L 54.1875 -8.84375 C 48.425781 -2.550781 40.640625 0.59375 30.828125 0.59375 C 22.140625 0.59375 15.226562 -1.890625 10.09375 -6.859375 C 4.957031 -11.828125 2.390625 -18.425781 2.390625 -26.65625 C 2.390625 -34.9375 4.957031 -41.59375 10.09375 -46.625 C 15.226562 -51.664062 21.972656 -54.1875 30.328125 -54.1875 Z M 19.390625 -31.421875 L 40.875 -31.421875 C 40.875 -34.671875 39.925781 -37.289062 38.03125 -39.28125 C 36.144531 -41.269531 33.644531 -42.265625 30.53125 -42.265625 C 27.613281 -42.265625 25.160156 -41.285156 23.171875 -39.328125 C 21.179688 -37.367188 19.921875 -34.734375 19.390625 -31.421875 Z M 19.390625 -31.421875 "/></g></g></g><g fill="#000000" fill-opacity="1"><g transform="translate(242.461642, 355.110814)"><g><path d="M 78.453125 -54.390625 C 84.359375 -54.390625 89.050781 -52.515625 92.53125 -48.765625 C 96.007812 -45.023438 97.75 -40.039062 97.75 -33.8125 L 97.75 0 L 80.640625 0 L 80.640625 -29.03125 C 80.640625 -32.21875 79.8125 -34.722656 78.15625 -36.546875 C 76.5 -38.367188 74.242188 -39.28125 71.390625 -39.28125 C 68.210938 -39.207031 65.675781 -37.992188 63.78125 -35.640625 C 61.894531 -33.296875 60.953125 -30.265625 60.953125 -26.546875 L 60.953125 0 L 43.75 0 L 43.75 -29.03125 C 43.75 -32.21875 42.9375 -34.722656 41.3125 -36.546875 C 39.6875 -38.367188 37.453125 -39.28125 34.609375 -39.28125 C 31.359375 -39.207031 28.769531 -37.976562 26.84375 -35.59375 C 24.925781 -33.207031 23.96875 -30.191406 23.96875 -26.546875 L 23.96875 0 L 6.859375 0 L 6.859375 -53.59375 L 23.96875 -53.59375 L 23.96875 -44.75 C 27.613281 -51.039062 33.515625 -54.253906 41.671875 -54.390625 C 45.972656 -54.390625 49.695312 -53.3125 52.84375 -51.15625 C 56 -49 58.238281 -46.035156 59.5625 -42.265625 C 63.070312 -50.210938 69.367188 -54.253906 78.453125 -54.390625 Z M 78.453125 -54.390625 "/></g></g></g><g fill="#000000" fill-opacity="1"><g transform="translate(345.576399, 355.110814)"><g><path d="M 21.484375 -51.515625 L 18.5 -23.859375 L 8.15625 -23.859375 L 5.171875 -51.515625 L 5.171875 -69.203125 L 21.484375 -69.203125 Z M 13.03125 -15.8125 C 15.476562 -15.8125 17.476562 -15.046875 19.03125 -13.515625 C 20.59375 -11.992188 21.375 -10.003906 21.375 -7.546875 C 21.375 -5.097656 20.59375 -3.09375 19.03125 -1.53125 C 17.476562 0.0195312 15.476562 0.796875 13.03125 0.796875 C 10.644531 0.796875 8.671875 0.0195312 7.109375 -1.53125 C 5.546875 -3.09375 4.765625 -5.097656 4.765625 -7.546875 C 4.765625 -10.003906 5.546875 -11.992188 7.109375 -13.515625 C 8.671875 -15.046875 10.644531 -15.8125 13.03125 -15.8125 Z M 13.03125 -15.8125 "/></g></g></g></svg>